<?xml version="1.0" encoding="UTF-8" standalone="no"?>
<svg
   xmlns:dc="http://purl.org/dc/elements/1.1/"
   xmlns:cc="http://creativecommons.org/ns#"
   xmlns:rdf="http://www.w3.org/1999/02/22-rdf-syntax-ns#"
   xmlns:svg="http://www.w3.org/2000/svg"
   xmlns="http://www.w3.org/2000/svg"
   xmlns:sodipodi="http://sodipodi.sourceforge.net/DTD/sodipodi-0.dtd"
   xmlns:inkscape="http://www.inkscape.org/namespaces/inkscape"
   inkscape:version="1.0 (4035a4fb49, 2020-05-01)"
   sodipodi:docname="email.svg"
   xml:space="preserve"
   style="enable-background:new 0 0 512 512;"
   viewBox="0 0 512 512"
   y="0px"
   x="0px"
   id="Capa_1"
   version="1.1"><metadata
   id="metadata43"><rdf:RDF><cc:Work
       rdf:about=""><dc:format>image/svg+xml</dc:format><dc:type
         rdf:resource="http://purl.org/dc/dcmitype/StillImage" /><dc:title /></cc:Work></rdf:RDF></metadata><defs
   id="defs41">
		
	
	
</defs><sodipodi:namedview
   inkscape:current-layer="layer2"
   inkscape:window-maximized="1"
   inkscape:window-y="-11"
   inkscape:window-x="-11"
   inkscape:cy="256"
   inkscape:cx="16"
   inkscape:zoom="1"
   showgrid="false"
   id="namedview39"
   inkscape:window-height="1046"
   inkscape:window-width="1920"
   inkscape:pageshadow="2"
   inkscape:pageopacity="0"
   guidetolerance="10"
   gridtolerance="10"
   objecttolerance="10"
   borderopacity="1"
   bordercolor="#666666"
   pagecolor="#ffffff"
   inkscape:document-rotation="0" />
<g
   style="display:inline"
   inkscape:label="email"
   id="layer2"
   inkscape:groupmode="layer"><g
     style="fill:#ffffff"
     transform="matrix(10.852464,0,0,-10.852464,-1664.4098,1078.6255)"
     id="g1116"><path
       id="path234"
       style="fill:#ffffff;fill-opacity:1;fill-rule:nonzero;stroke:none"
       d="m 156.299,62.338 h 41.313 v 26.927 h -41.313 z m 42.78,-2.933 h -44.246 c -0.81,0 -1.466,0.657 -1.466,1.466 V 90.73 c 0,0.81 0.656,1.466 1.466,1.466 h 44.246 c 0.809,0 1.466,-0.656 1.466,-1.466 V 60.871 c 0,-0.809 -0.657,-1.466 -1.466,-1.466" /><g
       style="fill:#ffffff"
       transform="translate(158.6758,89.2646)"
       id="g236"><path
         id="path238"
         style="fill:#ffffff;fill-opacity:1;fill-rule:nonzero;stroke:none"
         d="m 0,0 15.912,-14.221 c 1.35,-1.207 3.386,-1.208 4.737,0 L 36.561,0 Z m 18.281,-18.061 c -1.546,0 -3.092,0.552 -4.324,1.654 L -4.819,0.373 c -0.454,0.404 -0.61,1.047 -0.393,1.615 0.217,0.57 0.762,0.944 1.37,0.944 h 44.245 c 0.608,0 1.153,-0.374 1.37,-0.944 C 41.99,1.42 41.833,0.777 41.38,0.373 l -18.776,-16.78 c -1.233,-1.102 -2.778,-1.654 -4.323,-1.654" /></g></g></g>
<g
   id="g8">
</g>
<g
   id="g10">
</g>
<g
   id="g12">
</g>
<g
   id="g14">
</g>
<g
   id="g16">
</g>
<g
   id="g18">
</g>
<g
   id="g20">
</g>
<g
   id="g22">
</g>
<g
   id="g24">
</g>
<g
   id="g26">
</g>
<g
   id="g28">
</g>
<g
   id="g30">
</g>
<g
   id="g32">
</g>
<g
   id="g34">
</g>
<g
   id="g36">
</g>
</svg>
