<?xml version="1.0" encoding="UTF-8" standalone="no"?>
<svg
   xmlns:dc="http://purl.org/dc/elements/1.1/"
   xmlns:cc="http://creativecommons.org/ns#"
   xmlns:rdf="http://www.w3.org/1999/02/22-rdf-syntax-ns#"
   xmlns:svg="http://www.w3.org/2000/svg"
   xmlns="http://www.w3.org/2000/svg"
   xmlns:sodipodi="http://sodipodi.sourceforge.net/DTD/sodipodi-0.dtd"
   xmlns:inkscape="http://www.inkscape.org/namespaces/inkscape"
   inkscape:version="1.0 (4035a4fb49, 2020-05-01)"
   sodipodi:docname="location.svg"
   xml:space="preserve"
   style="enable-background:new 0 0 512 512;"
   viewBox="0 0 512 512"
   y="0px"
   x="0px"
   id="Capa_1"
   version="1.1"><metadata
   id="metadata43"><rdf:RDF><cc:Work
       rdf:about=""><dc:format>image/svg+xml</dc:format><dc:type
         rdf:resource="http://purl.org/dc/dcmitype/StillImage" /><dc:title /></cc:Work></rdf:RDF></metadata><defs
   id="defs41">
		
	
	
</defs><sodipodi:namedview
   inkscape:current-layer="layer1"
   inkscape:window-maximized="1"
   inkscape:window-y="-11"
   inkscape:window-x="-11"
   inkscape:cy="256"
   inkscape:cx="16"
   inkscape:zoom="1"
   showgrid="false"
   id="namedview39"
   inkscape:window-height="1046"
   inkscape:window-width="1920"
   inkscape:pageshadow="2"
   inkscape:pageopacity="0"
   guidetolerance="10"
   gridtolerance="10"
   objecttolerance="10"
   borderopacity="1"
   bordercolor="#666666"
   pagecolor="#ffffff"
   inkscape:document-rotation="0" />
<g
   style="display:inline"
   inkscape:label="location"
   id="layer1"
   inkscape:groupmode="layer"><g
     style="fill:#ffffff"
     id="g1134"
     transform="matrix(10.51028,0,0,-10.51028,-1603.8582,3316.8626)"><g
       style="fill:#ffffff"
       id="g90"
       transform="translate(176.9551,270.5771)"><path
         d="m 0,0 c -3.459,2.579 -15.436,12.498 -15.436,26.243 0,8.512 6.925,15.438 15.436,15.438 8.512,0 15.438,-6.926 15.438,-15.438 C 15.438,12.498 3.459,2.579 0,0 m 0,45.053 c -10.371,0 -18.808,-8.439 -18.808,-18.81 0,-7.412 3.103,-14.909 8.973,-21.681 4.384,-5.058 8.73,-7.924 8.913,-8.043 0.279,-0.184 0.601,-0.275 0.922,-0.275 0.321,0 0.643,0.091 0.923,0.275 0.182,0.119 4.529,2.985 8.913,8.043 5.871,6.772 8.974,14.269 8.974,21.681 0,10.371 -8.438,18.81 -18.81,18.81"
         style="fill:#ffffff;fill-opacity:1;fill-rule:nonzero;stroke:none"
         id="path92" /></g><g
       style="fill:#ffffff"
       id="g94"
       transform="translate(176.9565,292.731)"><path
         d="M 0,0 C -2.258,0 -4.094,1.836 -4.094,4.092 -4.094,6.35 -2.258,8.186 0,8.186 2.256,8.186 4.092,6.35 4.092,4.092 4.092,1.836 2.256,0 0,0 m 0,11.558 c -4.117,0 -7.466,-3.349 -7.466,-7.466 0,-4.115 3.349,-7.465 7.466,-7.465 4.115,0 7.464,3.35 7.464,7.465 0,4.116 -3.349,7.466 -7.464,7.466"
         style="fill:#ffffff;fill-opacity:1;fill-rule:nonzero;stroke:none"
         id="path96" /></g></g></g>
<g
   id="g8">
</g>
<g
   id="g10">
</g>
<g
   id="g12">
</g>
<g
   id="g14">
</g>
<g
   id="g16">
</g>
<g
   id="g18">
</g>
<g
   id="g20">
</g>
<g
   id="g22">
</g>
<g
   id="g24">
</g>
<g
   id="g26">
</g>
<g
   id="g28">
</g>
<g
   id="g30">
</g>
<g
   id="g32">
</g>
<g
   id="g34">
</g>
<g
   id="g36">
</g>
</svg>
