<svg id="svg2" xmlns="http://www.w3.org/2000/svg" viewBox="0 0 100 38.24"><defs><style>.cls-1{isolation:isolate;}.cls-2{fill:#0b3c5d;}</style></defs><title>logo-foresta</title><g class="cls-1"><path class="cls-2" d="M33.14,3a.82.82,0,0,1-.72.82h-.1a.44.44,0,0,1,.12,0,3.09,3.09,0,0,0-.55.51A49,49,0,0,1,39.7,3.6c2.2,0,3.88.28,4.13,1a1.17,1.17,0,0,1,0,.26.86.86,0,0,1-.87.8.66.66,0,0,1-.64-.46c-.1-.32-1.46-.55-3.56-.55A32.18,32.18,0,0,0,34,5.07a28.71,28.71,0,0,0-3,.52A80.49,80.49,0,0,0,25,16.93a32.33,32.33,0,0,1,6.65-1.31,2,2,0,0,1,1,.19.66.66,0,0,1,.3.55.89.89,0,0,1-.82.86.7.7,0,0,1-.42-.14,1.56,1.56,0,0,0-1.21-.34,22.47,22.47,0,0,0-6,1.34,63.7,63.7,0,0,0-3.64,10.16c-.26,1.2.26,2.27-.86,2.51a2,2,0,0,1-.32,0c-.48,0-.66-.36-.66-.85a13,13,0,0,1,.68-2.74,13.38,13.38,0,0,0,.16-2.15,14.3,14.3,0,0,0-5.05-10.71h-.1c-.62,0-.76-.68-.7-1.1,0-4.64,9.89-7.36,16-8.56A14.88,14.88,0,0,1,31.15,3c.18-.46.06-.4.56-.52a1.14,1.14,0,0,1,.81-.22A.7.7,0,0,1,33.14,3ZM23.23,18.56c-.9.38-1.46.71-1.42.87a.68.68,0,0,1-.28,0,.7.7,0,0,1-.68-.75.8.8,0,0,1,.56-.76s1-.32,2.37-.72c1.9-4.23,4-8.58,5.6-11.41a40,40,0,0,0-10.85,3.6c-2,1.14-2.72,2.16-2.72,3.18,0,2.62,4.7,5.44,5.17,11.22C21.67,22.23,22.43,20.43,23.23,18.56Z"/><path class="cls-2" d="M41,17.61a5.39,5.39,0,0,0,2.66-.91,1.06,1.06,0,0,1,.5-.15c.24,0,.38.13.38.31s-.16.42-.53.59a7.13,7.13,0,0,1-3,.84A4.13,4.13,0,0,1,39.36,18c-.6,2-2.27,4.64-3.64,4.64a1,1,0,0,1-.48-.12,2.28,2.28,0,0,1-1-2.15c0-2,1.33-4.59,2.36-5a1.14,1.14,0,0,1,0-.26,1.74,1.74,0,0,1,1.76-1.52c.77,0,1.49.56,1.49,2.1a7.32,7.32,0,0,1-.2,1.6A3.1,3.1,0,0,0,41,17.61Zm-6.05,3a1.16,1.16,0,0,0,.86,1.16.58.58,0,0,0,.18,0c1,0,2.08-2.74,2.27-4.46a4.94,4.94,0,0,1-1-.8C36.66,17.15,34.94,19.25,34.94,20.63ZM38.2,15.1c-.2.16-.16.57.11,1A5,5,0,0,0,38.2,15.1Z"/><path class="cls-2" d="M45,13.9c.47,0,1,.3,1,.73a.61.61,0,0,1-.06.25c-.29,0-1.38,2.18-1.92,4.13.81-1.68,2-3.58,3.14-3.86l.2,0c1.38,0,2,2.1,3.08,2.64A1.45,1.45,0,0,0,51,18c.4,0,.84-.34,1.76-1.44a.69.69,0,0,1,.42-.16c.33,0,.48.41.48.7s0,.28-.12.28a3.58,3.58,0,0,1-2.26,1.1,3,3,0,0,1-1.22-.32c-1.43-.58-2.24-2.2-2.9-2.2-1.28,0-2.06,6-3.8,6.7a1,1,0,0,1-.24,0c-.43,0-.7-.28-.82-.86a.18.18,0,0,0,0-.1v-.22c0-2,1.94-7,1.88-7.08A.88.88,0,0,1,45,13.9Z"/><path class="cls-2" d="M55.42,13.9c.61,0,.92.46.92,1.14,0,1.32-1.19,3.49-3.88,4.9a3.35,3.35,0,0,0-.17.92.78.78,0,0,0,.84.88c1.31,0,4-1.72,6.94-5a.71.71,0,0,1,.49-.25.65.65,0,0,1,.6.68.7.7,0,0,1-.3.58c-.8.46-5.38,4.94-8,4.94a1.62,1.62,0,0,1-1-.28A2.24,2.24,0,0,1,51,20.51c0-2.58,2.74-6.32,4.19-6.58A.63.63,0,0,1,55.42,13.9Zm0,1.43c0-.06,0-.08,0-.08a.18.18,0,0,0-.1.06,15.89,15.89,0,0,0-2,2.9C54.36,17.89,55.4,15.78,55.4,15.33Z"/><path class="cls-2" d="M76,2.3c.3,0,.55.1.55.37s-.22.67-.8,1.3a18.21,18.21,0,0,0-2.06,3.3c3.92-.46,8.06-.9,10.67-.9a7.34,7.34,0,0,1,2.28.24.68.68,0,0,1,.44.68c0,.44-.3.89-.65.89A.52.52,0,0,1,86.11,8C85.52,7.55,84,7.35,82,7.35a68.65,68.65,0,0,0-8.63.71C70.89,13,67,20.7,67,24.64a6.5,6.5,0,0,0,0,.66,57.13,57.13,0,0,1,7.38-8.62.63.63,0,0,1,1.11.44.57.57,0,0,1-.38.54c-5.85,3.16-7,8.37-7.76,9.52a.67.67,0,0,1-.55.34,1.17,1.17,0,0,1-.88-.56,2.35,2.35,0,0,1-.32-1.34c0-3.62,4.08-11.82,6.62-17.41l-.56.08a120.62,120.62,0,0,0-9.61,11.37.15.15,0,0,0,0,.1,20,20,0,0,1,.78,3.78,3.18,3.18,0,0,1-.74,2.22,5,5,0,0,1-1.84.94.8.8,0,0,1-.3.06,1.27,1.27,0,0,1-.82-.38A1.79,1.79,0,0,1,58.6,25c0-1.69,1.5-4,2.26-5.05a9.42,9.42,0,0,1-1.1-3.5,4.15,4.15,0,0,1,1.46-3,2.23,2.23,0,0,1,1.49-.7c.72,0,1.27.52,1.27,1.54a4.21,4.21,0,0,1,0,.5,7.4,7.4,0,0,1-.6,1.77c2.2-2.78,4.5-5.41,6.91-8.07a49.75,49.75,0,0,0-5.53,1.18,3.88,3.88,0,0,0,.67.06,3.33,3.33,0,0,0,1.76-.51h.08c.35,0,.58.2.58.44s-.54.78-2.16.78a9.77,9.77,0,0,1-1.44-.1.59.59,0,0,1-.52-.16h-.08a.75.75,0,0,1-.75-.78.73.73,0,0,1,.67-.74s3.36-.52,7.52-1.08c1.17-1.31,2.27-2.52,3.18-3.56a10.43,10.43,0,0,1,.9-1.51A1.53,1.53,0,0,1,76,2.3Zm-15,18.81a8.32,8.32,0,0,0-1.46,3.42,1,1,0,0,0,.14.57.47.47,0,0,0,.41.17c.57,0,1.47-.62,1.47-2.25a6.37,6.37,0,0,0-.36-2C61.21,20.85,61.23,20.85,61.07,21.11Zm2-4.21a.52.52,0,0,1-.22.06c-.31,0-.58-.39-.58-.68a.4.4,0,0,1,.08-.26,3.34,3.34,0,0,0,1.06-2c0-.31-.14-.5-.44-.5a1.79,1.79,0,0,0-.82.31,2.49,2.49,0,0,0-1.4,2.2,7.45,7.45,0,0,0,.88,2.8c.48-.66,1-1.31,1.46-1.94C63.09,16.88,63.07,16.9,63.07,16.9Zm9.52-9.5.12-.23-.24.25Z"/><path class="cls-2" d="M79.91,14.29a.76.76,0,0,1-.8.72,1,1,0,0,1-.54-.18.53.53,0,0,0-.28-.07c-1.32,0-4,4.83-4,5.68,0,.07,0,.11.08.11a.33.33,0,0,0,.18-.08c1.3-1,3.58-4.32,4.21-5a.74.74,0,0,1,.52-.24.78.78,0,0,1,.8.72.69.69,0,0,1-.08.32,8.8,8.8,0,0,0-1,3.6c0,.6.16,1,.4,1h0a8.59,8.59,0,0,0,4.84-4,.58.58,0,0,1,.46-.33.56.56,0,0,1,.51.6.74.74,0,0,1-.26.56c-1.16,1.16-3.64,3.8-5.5,3.8a1.56,1.56,0,0,1-.44-.06c-.7-.17-1.27-.64-1.27-1.86a5.93,5.93,0,0,1,.21-1.46c-.88,1.1-2.48,3.36-3.89,3.36a1.18,1.18,0,0,1-.61-.15,1.28,1.28,0,0,1-.62-1.24c0-2.37,3.48-6.83,5.78-6.83a1.47,1.47,0,0,1,1.06.44A.76.76,0,0,1,79.91,14.29Z"/></g><path class="cls-2" d="M31.66,36.26H31c-.14,0-.27-.12-.37-.46a2.2,2.2,0,0,0-.2-.48.58.58,0,0,0-.12-.2.3.3,0,0,0-.2-.06H28.58l-.32,1c0,.06-.06.1-.08.1a.22.22,0,0,1-.14.06h-.23l1.52-4.5a.18.18,0,0,1,.12-.08l.08,0h.24ZM30.3,34.81a.15.15,0,0,0,0-.08l-.84-2.19q-.06-.12-.12-.12s-.06,0-.08.12l-.58,2.34h1.5C30.26,34.89,30.3,34.87,30.3,34.81Z"/><path class="cls-2" d="M36.12,33.19v0a1.2,1.2,0,0,1-.59,1,2.36,2.36,0,0,1-.6.26l1.2,1.74h-.44c-.12,0-.24-.06-.37-.24l-.84-1.32c0-.06-.08-.12-.14-.13a.07.07,0,0,0-.06,0h-.49V36a.21.21,0,0,1-.18.24h-.48V32a.29.29,0,0,1,.14-.22.25.25,0,0,1,.12,0,7.86,7.86,0,0,1,.9,0l.62.06a1.43,1.43,0,0,1,.82.38A1.37,1.37,0,0,1,36.12,33.19Zm-.9.76a1.31,1.31,0,0,0,.27-.76,1.2,1.2,0,0,0-.25-.76,1.23,1.23,0,0,0-.65-.47A2.35,2.35,0,0,0,34,31.9c-.14,0-.22.08-.22.2v2.31a4.92,4.92,0,0,0,.76,0A1,1,0,0,0,35.22,34Z"/><path class="cls-2" d="M39.12,36.26v-4c0-.28-.1-.44-.3-.42a2.53,2.53,0,0,0-.49,0,.71.71,0,0,0-.46.2c-.1.08-.2.2-.32.32v-.57c0-.08,0-.11.14-.11h3.39c.15,0,.23.05.25.17v.47a1.43,1.43,0,0,0-.46-.44,2.12,2.12,0,0,0-.76-.08.29.29,0,0,0-.3.16,1.31,1.31,0,0,0,0,.38V36a.21.21,0,0,1-.2.24Z"/><path class="cls-2" d="M45.36,32.11,45,32a3.51,3.51,0,0,0-.82-.08h-.54c-.18,0-.28.12-.28.34V34h1.39A.3.3,0,0,1,45,34c0,.1-.06.12-.13.1H43.59c-.16,0-.22.12-.22.34v1.62h.74a3.41,3.41,0,0,0,1.2-.18c.28-.12.44-.3.44-.48V36a.23.23,0,0,1-.08.2.4.4,0,0,1-.18,0H42.71V32.21a.44.44,0,0,1,.5-.46c1.08,0,1.8,0,2.14,0s.38.12.38.34v.49A.62.62,0,0,0,45.36,32.11Z"/><path class="cls-2" d="M51.09,31.74a.17.17,0,0,1,.18.19v4.19A8.31,8.31,0,0,0,53,36a.86.86,0,0,0,.62-.46V36c0,.16-.08.24-.2.24h-2.8V31.72l.5,0Z"/><path class="cls-2" d="M58.23,32.4a2.49,2.49,0,0,1,.44,1.46,1.72,1.72,0,0,1,0,.32A2.62,2.62,0,0,1,58,35.7a1.66,1.66,0,0,1-1.26.61,1.46,1.46,0,0,1-1.28-.73A2.55,2.55,0,0,1,55,34.12a1.72,1.72,0,0,1,0-.32,2.56,2.56,0,0,1,.64-1.52,1.61,1.61,0,0,1,1.26-.6A1.46,1.46,0,0,1,58.23,32.4Zm-.4.14c-.22-.44-.49-.65-.8-.67a1,1,0,0,0-.88.59,3.12,3.12,0,0,0-.44,1.5A2.88,2.88,0,0,0,56,35.49a1,1,0,0,0,.8.66c.33,0,.62-.18.88-.59a3.07,3.07,0,0,0,.43-1.48A3.35,3.35,0,0,0,57.83,32.54Z"/><path class="cls-2" d="M63,32.31a1.25,1.25,0,0,0-.46-.4.8.8,0,0,0-.3-.06.77.77,0,0,0-.6.26,2.68,2.68,0,0,0-.51.84,3.25,3.25,0,0,0-.18.7,4.58,4.58,0,0,0,0,1.06,2.24,2.24,0,0,0,.14.49,1.44,1.44,0,0,0,1.22.8.9.9,0,0,0,.48-.12,2.45,2.45,0,0,0,.24-.16.89.89,0,0,1,.2-.12s0,0,0,0,0,.08-.14.16a3.9,3.9,0,0,1-.5.36,1.54,1.54,0,0,1-.67.16,1.83,1.83,0,0,1-.82-.22,2,2,0,0,1-.62-.55,2.4,2.4,0,0,1-.36-.84,2.53,2.53,0,0,1-.06-.56,3.76,3.76,0,0,1,.26-1.3A2,2,0,0,1,61,32a1.76,1.76,0,0,1,.73-.31,2.34,2.34,0,0,1,.82,0,1.25,1.25,0,0,1,.74.31,1.38,1.38,0,0,1,.06.16,1.33,1.33,0,0,1,0,.42.56.56,0,0,1,0,.21A4.17,4.17,0,0,0,63,32.31Z"/><path class="cls-2" d="M68.61,36.26H68c-.14,0-.28-.12-.38-.46a2.32,2.32,0,0,0-.19-.48,1.78,1.78,0,0,0-.1-.2.3.3,0,0,0-.2-.06H65.56l-.32,1c0,.06-.06.1-.08.1a.22.22,0,0,1-.14.06h-.24l1.53-4.5a.18.18,0,0,1,.12-.08l.08,0h.23Zm-1.36-1.45a.15.15,0,0,0,0-.08l-.84-2.19q-.06-.12-.12-.12s-.06,0-.08.12l-.59,2.34h1.51C67.21,34.89,67.25,34.87,67.25,34.81Z"/><path class="cls-2" d="M70.55,31.74a.17.17,0,0,1,.18.19v4.19a8.24,8.24,0,0,0,1.7-.12.87.87,0,0,0,.63-.46V36c0,.16-.08.24-.2.24h-2.8V31.72l.49,0Z"/></svg>