<?xml version="1.0" encoding="UTF-8" standalone="no"?>
<svg
   xmlns:dc="http://purl.org/dc/elements/1.1/"
   xmlns:cc="http://creativecommons.org/ns#"
   xmlns:rdf="http://www.w3.org/1999/02/22-rdf-syntax-ns#"
   xmlns:svg="http://www.w3.org/2000/svg"
   xmlns="http://www.w3.org/2000/svg"
   xmlns:sodipodi="http://sodipodi.sourceforge.net/DTD/sodipodi-0.dtd"
   xmlns:inkscape="http://www.inkscape.org/namespaces/inkscape"
   inkscape:version="1.0 (4035a4fb49, 2020-05-01)"
   sodipodi:docname="phone.svg"
   xml:space="preserve"
   style="enable-background:new 0 0 512 512;"
   viewBox="0 0 512 512"
   y="0px"
   x="0px"
   id="Capa_1"
   version="1.1"><metadata
   id="metadata43"><rdf:RDF><cc:Work
       rdf:about=""><dc:format>image/svg+xml</dc:format><dc:type
         rdf:resource="http://purl.org/dc/dcmitype/StillImage" /><dc:title /></cc:Work></rdf:RDF></metadata><defs
   id="defs41">
		
	
	
</defs><sodipodi:namedview
   inkscape:current-layer="layer3"
   inkscape:window-maximized="1"
   inkscape:window-y="-11"
   inkscape:window-x="-11"
   inkscape:cy="256"
   inkscape:cx="16"
   inkscape:zoom="1"
   showgrid="false"
   id="namedview39"
   inkscape:window-height="1046"
   inkscape:window-width="1920"
   inkscape:pageshadow="2"
   inkscape:pageopacity="0"
   guidetolerance="10"
   gridtolerance="10"
   objecttolerance="10"
   borderopacity="1"
   bordercolor="#666666"
   pagecolor="#ffffff"
   inkscape:document-rotation="0" />
<g
   style="display:inline"
   inkscape:label="phone"
   id="layer3"
   inkscape:groupmode="layer"><a
     style="fill:#ffffff"
     transform="matrix(9.2201835,0,0,9.2201835,2370.1659,-2143.4792)"
     id="a958"><g
       style="fill:#ffffff"
       transform="matrix(1.3333333,0,0,-1.3333333,-238.16626,245.89151)"
       id="g62"><path
         id="path64"
         style="fill:#ffffff;fill-opacity:1;fill-rule:nonzero;stroke:none"
         d="M 0,0 C 0,0.165 -0.025,0.332 -0.075,0.496 -0.56,2.08 -0.899,3.719 -1.085,5.37 -1.178,6.189 -1.877,6.807 -2.712,6.807 H -9.28 c -0.466,0 -0.894,-0.189 -1.207,-0.533 -0.318,-0.347 -0.468,-0.798 -0.425,-1.269 1.628,-17.686 15.646,-31.703 33.331,-33.331 0.471,-0.044 0.922,0.107 1.27,0.424 0.343,0.314 0.533,0.742 0.533,1.208 v 6.568 c 0,0.834 -0.618,1.534 -1.438,1.626 -1.65,0.187 -3.29,0.526 -4.874,1.01 -0.59,0.181 -1.22,0.029 -1.646,-0.396 l -4.333,-4.334 -1.047,0.521 c -6.531,3.25 -11.918,8.637 -15.168,15.169 l -0.521,1.047 4.333,4.333 C -0.165,-0.843 0,-0.429 0,0 m -14.172,5.155 c 0,1.219 0.454,2.406 1.281,3.312 0.924,1.013 2.24,1.594 3.611,1.594 h 6.568 c 2.493,0 4.582,-1.86 4.86,-4.327 C 2.312,4.282 2.611,2.84 3.037,1.448 3.569,-0.295 3.107,-2.172 1.829,-3.451 l -2.662,-2.661 c 2.789,-5.097 7.04,-9.347 12.135,-12.135 l 2.662,2.662 c 1.278,1.277 3.155,1.74 4.898,1.207 1.393,-0.426 2.834,-0.725 4.286,-0.889 2.467,-0.277 4.327,-2.367 4.327,-4.859 v -6.568 c 0,-1.371 -0.58,-2.687 -1.594,-3.612 -1.016,-0.927 -2.387,-1.387 -3.76,-1.26 -4.713,0.433 -9.264,1.683 -13.525,3.712 -4.143,1.974 -7.896,4.625 -11.153,7.883 -3.256,3.257 -5.909,7.009 -7.882,11.152 -2.029,4.262 -3.279,8.813 -3.713,13.526 -0.014,0.149 -0.02,0.299 -0.02,0.448" /></g></a></g>
<g
   id="g8">
</g>
<g
   id="g10">
</g>
<g
   id="g12">
</g>
<g
   id="g14">
</g>
<g
   id="g16">
</g>
<g
   id="g18">
</g>
<g
   id="g20">
</g>
<g
   id="g22">
</g>
<g
   id="g24">
</g>
<g
   id="g26">
</g>
<g
   id="g28">
</g>
<g
   id="g30">
</g>
<g
   id="g32">
</g>
<g
   id="g34">
</g>
<g
   id="g36">
</g>
</svg>
